<svg width="22" height="19" viewBox="0 0 22 19" fill="none" xmlns="http://www.w3.org/2000/svg">
<g clip-path="url(#clip0_2723_384)">
<path d="M21.4845 1.28511C20.4113 1.80504 18.8882 2.71129 17.1796 4.23624C16.9599 4.43234 16.7372 4.6387 16.512 4.85587C14.4799 6.81369 12.2439 9.64387 10.2161 13.7091C10.0999 13.9415 9.87866 14.0545 9.65838 14.0545C9.41207 14.0545 9.16667 13.9136 9.06844 13.6405C8.49812 12.0514 7.35986 9.58614 5.43795 8.1607C5.19036 7.97688 5.32762 7.59184 5.62231 7.59184C5.63386 7.59184 5.64559 7.59239 5.65768 7.59367C6.67023 7.69685 8.21039 8.164 9.53009 9.86745C9.53192 9.86965 9.53412 9.87057 9.53724 9.87057C9.70676 9.87057 12.089 6.51277 15.6686 3.84021C15.9103 3.65951 16.1575 3.48229 16.4097 3.30947C17.9024 2.28575 19.5751 1.4156 21.3634 0.955786C21.3801 0.951387 21.3965 0.949188 21.4119 0.949188C21.5848 0.949188 21.6605 1.20008 21.4845 1.28511Z" fill="#DB1C33"/>
<path d="M17.6093 4.88738C17.3868 5.08824 17.1612 5.29955 16.9329 5.52258C17.5983 6.69805 17.9782 8.05568 17.9782 9.50018C17.9782 13.9673 14.3441 17.6018 9.87659 17.6018C5.40912 17.6018 1.77551 13.9671 1.77551 9.5C1.77551 5.0329 5.40967 1.39855 9.87677 1.39855C11.8612 1.39855 13.6814 2.11585 15.0918 3.30452C15.3421 3.11557 15.5921 2.93395 15.8419 2.7604C14.1951 1.29867 12.0976 0.5 9.87677 0.5C7.47269 0.5 5.21284 1.43631 3.51287 3.13628C1.81289 4.83607 0.876953 7.0961 0.876953 9.5C0.876953 11.9039 1.81289 14.1641 3.51287 15.8637C5.21284 17.5637 7.47269 18.5 9.87659 18.5C12.2805 18.5 14.5407 17.5637 16.2407 15.8637C17.9406 14.1641 18.8766 11.9039 18.8766 9.5C18.8766 7.84987 18.4355 6.26737 17.6091 4.88738H17.6093Z" fill="#BDBDBD"/>
</g>
<defs>
<clipPath id="clip0_2723_384">
<rect width="20.7076" height="18" fill="white" transform="translate(0.876953 0.5)"/>
</clipPath>
</defs>
</svg>
