<svg width="44" height="38" viewBox="0 0 44 38" fill="none" xmlns="http://www.w3.org/2000/svg">
<path d="M43.018 7.14638C38.3735 7.6618 37.6414 8.86302 37.0772 13.1056C37.0608 13.2313 36.8603 13.2313 36.844 13.1056C36.2798 8.86302 35.5476 7.6618 30.9032 7.14638C30.7656 7.13147 30.7656 6.9483 30.9032 6.93339C35.5465 6.41798 36.2786 5.21675 36.8428 0.974128C36.8592 0.848468 37.0597 0.848468 37.076 0.974128C37.6402 5.21675 38.3723 6.41798 43.0168 6.93339C43.1544 6.9483 43.1544 7.13147 43.0168 7.14638H43.018Z" stroke="#D70926" stroke-width="1.4" stroke-miterlimit="10"/>
<path d="M5.18612 36.8095C5.47325 37.0955 5.90393 37.1849 6.28077 37.024C6.65762 36.8631 6.90885 36.5056 6.90885 36.0944V35.2005C6.90885 32.0898 9.24171 29.4796 12.3462 29.1399C12.3462 29.1399 12.3642 29.1399 12.3821 29.1399C12.6154 29.1221 12.8307 29.1042 13.0461 29.1042H21.8391C25.2128 29.1042 27.9584 31.8395 27.9584 35.2184V36.1123C27.9584 36.5235 28.2096 36.881 28.5865 37.0419C28.7121 37.0955 28.8377 37.1134 28.9813 37.1134C29.2325 37.1134 29.5017 37.0062 29.6991 36.8274C33.0369 33.5379 34.8852 29.1399 34.8852 24.4739C34.8852 14.8914 27.0612 7.09668 17.4426 7.09668C7.82405 7.09668 0 14.8735 0 24.456C0 29.1221 1.84834 33.5021 5.18612 36.8095ZM18.3578 27.084H16.4915C13.2255 26.6371 10.7132 23.8481 10.7132 20.4692C10.7132 16.7864 13.728 13.783 17.4247 13.783C21.1213 13.783 24.1361 16.7864 24.1361 20.4692C24.1361 23.8481 21.6059 26.6371 18.3578 27.084ZM17.4247 9.09899C25.9306 9.09899 32.8395 15.9819 32.8395 24.456C32.8395 27.7812 31.7807 30.9635 29.8068 33.5915C29.1069 30.1411 26.1819 27.4773 22.6108 27.1376C24.6027 25.6001 25.8947 23.1867 25.8947 20.4692C25.8947 15.821 22.0904 12.0309 17.4247 12.0309C12.7589 12.0309 8.95459 15.821 8.95459 20.4692C8.95459 23.1867 10.2466 25.5823 12.2385 27.1376C12.2206 27.1376 12.1847 27.1376 12.1668 27.1376C12.1309 27.1376 12.077 27.1376 12.0411 27.1376C8.50596 27.5667 5.72448 30.2126 5.04256 33.5736C3.06861 30.9456 2.00985 27.7634 2.00985 24.4381C2.00985 15.964 8.9187 9.08111 17.4247 9.08111V9.09899Z" fill="#D70926"/>
</svg>
